<svg xmlns="http://www.w3.org/2000/svg" id="Layer_1" viewBox="0 0 103.46259 132.8331" width="103.463" height="132.833"><style id="style3">.st0{fill:#ff4338}.st1{fill:#fff}</style><g id="g5" transform="translate(-75.893 -52.411)"><path class="st0" d="M114.3 147.6c0 .5-.2 1-.3 1.6-1.1 3.9-2.4 7.9-3.8 11.7-.1.3-.2.7-.4 1-1.3 1.7-2 3.9-2.9 5.9-.4 1-1 1.8-1.8 2.4-1.6 1.1-3.1 2.5-4.4 4.1-.9 1-1.7 1.9-3 1.7-.6-.1-1.2.4-1.9.6-.6.2-1.3.5-1.9.5-.8 0-1.5.1-2.3.6-.3.2-.8 0-1.2 0-.3 0-.5-.2-.8-.3-.6 0-1.3.4-1.5 1-.3.8-.1 1.9.5 2.4.3.2.6.4.9.5.3.1.7.1 1 .3 1.7 1.5 3.7 1.7 5.6 2.3 1.6.6 3.4.7 5.1 1.3.3.1.6 0 .8 0 3.5-.5 7.1-.5 10.6-1.2 3.2-.7 6.1-2.5 8.7-4.8 2.1-1.8 3.6-4.3 4.2-7.5.1-.4.2-.9.4-1.2 2.2-3.6 3.3-7.8 3.9-12 .6-4.6 1.2.8 1.3-3.8 0-2 .3-4 .4-6.5.7.3 1.2.3 1.6.6 1.4 1.1 3 1.5 4.8 1.2 1.4-.3 2.8-.5 4.2-.1 2.4.7 4.9.3 7.3-.3 2.5-.7 5-1.4 7.6-2.1 1.1-.3 2.3-.4 3.4-.9 2-1.1 4.1-1.8 6.2-2.3.5-.1 1.1-.5 1.6-.9 1.2-1.4 2.3-2.8 3.4-4.3.3-.5.7-11 .9-11.5.5-1.9 1.2-3.8 1.7-5.7.2-.6.2-1.2.3-1.8.5-3 .7-6 1.5-9 .2-.6.2-1.2.2-1.8-.1-3.4 1.1-6.6 1-10 0-.2 0-.5.2-.8.9-1.7.7-3.5 1-5.3.2-1.4.4-2.9.4-4.3s0-2.7-.1-4c-.1-1-.1-2 .3-3.1.4-1.3.4-2.7.3-4.1-.1-2.4-.5-4.8-.4-7.3 0-1.4.1-2.7.1-4.1-.1-1.5-.3-3-.4-4.6-.1-1.1-1.5-3.2-2.3-3.6-2.5-1-5.1-1.8-7.7-2.3-2.6-.4-5.2-.7-7.7-1h-.8c-2.2.3-4.4-.1-6.5-.5-1.7-.4-3.5-.6-5.3-.4-2.7.3-5.4.1-8-.2-.6-.1-1.4-.1-1.8-.5-.9-.8-2-.9-3-.7-2.5.5-5.1.1-7.6 1-.5.2-1.1.2-1.7.2-1.1.1-2.2-.1-3.4.4-.3.1-.7-.1-1-.1-.5-.1-1-.2-1.5-.1-1.8.4-3.7.1-5.5.1h-11.1c-5.1 0-10.2.9-15.1 3.3-1.7.8-3.3 1.8-4.9 2.8-.4.3-.8.7-1.2 1.2-1.5 2-2.4 4.3-2.7 7-.2 1.2-.4 2.5-.7 3.7-.1.4-.3.9-.3 1.3-.2 2.9-.3 5.8-.5 8.6 0 .4 0 .7.1 1.1.1 1.2.1 2.3 0 3.5-.4 2.5-.4 4.7-.4 7-.1 4.1-1.9 7.3-2 11.4 0 4 .4 6.9.7 10.9.1 1.2-.9 3-.8 4.2.2 3.3 1 7.1 1.6 10.4.6 3.2-.5 16.9.7 19.7.5 1.1 1.3 1.6 2.4 1.8 1.6.3 3 .1 4.6-.7 1.3-.7 7.1-1.1 8.5-1.5 1.5-.3 3-.5 4.4-.4 2.9.3 5.8-.2 8.7-.4.6 0 1.2-.1 1.7-.4 1.5-.9 3.1-.9 4.6-.8m-29.4-18.5c-.1.1-.1.2-.2.4-.1-.1-.1-.2-.2-.3 0-.1 0-.2.1-.2s.2.1.3.1zm9 4.1s-.1-.1-.1-.2c.1-.1.2-.1.4-.1 0 0 .1.1.1.2-.2 0-.3 0-.4.1zm80.8-43.1V90h.1c0 .1-.1.1-.1.2zm1.2 12.3c-.2 1-.5 2.1-.8 3.1-.4-1.2-.3-2.4.2-3.6.4 0 .7 0 .6.5zm1.6-40s-.1 0-.1-.1v-.2s.1 0 .1.1c.1 0 0 .1 0 .2zm.6 23.9V86c0 .1.1.2.1.3 0 0 0 .1-.1.1zm.6-7.2h-.1c0-.3 0-.6-.1-.9h.2v.9z" id="path7" fill="#ff4338"/><path class="st1" d="M160.8 96.7c.1-.8.2-1.7.1-2.5-.1-.5-.1-1.1-.1-1.6 0-.7 0-1.4-.1-2.1-.1-.9-.2-1.8-.4-2.7-.1-.6-.3-1.1-.4-1.6-.2-.5-.4-1.1-.5-1.6-.1-.3-.1-.6-.4-.8-.3-.2-.4-.7-.5-1-.1-.1-.1-.3-.2-.4-.1-.3-.2-.6-.3-.8-.2-.4-.4-.7-.6-1-.2-.6-.4-1.3-.8-1.8 0-.2.1-.4 0-.5-.2-.4-.5-.8-.8-1.1-.4-.5-.7-1-1.1-1.6-.1-.1-.1-.2-.2-.3l-.8-.8-1.2-1.2h-.1c-.3-.2-.6-.3-.9-.6-.3-.2-.6-.5-.9-.8l-1.8-1.5c-.5-.4-.9-.9-1.4-1.2-.7-.5-1.2-1.2-2-1.5-.3.2-.3.2-.6.1-.4-.1-.6-.3-.9-.5-.6-.3-1.3-.6-1.9-.9-.7-.3-1.3-.5-2-.8-.6-.2-1.2-.3-1.9-.5-.8-.2-1.6-.4-2.4-.5-.3-.1-.7 0-1-.1-.4-.1-.7-.2-1.1-.3-.3-.1-.7 0-.9-.5-.3 0-.5-.1-.8-.1-.6 0-1.1-.1-1.7 0-.6 0-1.2.1-1.8.1-.5 0-.9.1-1.4.1h-2.1c-.2 0-.4-.1-.6-.2-.1 0-.2.1-.3.1-.3 0-.5 0-.8.1-.4.1-.9.2-1.3-.1-.1-.1-.2 0-.3-.1-.2 0-.2 0-.3.2 0 .1-.2.3-.4.4-.6.2-1.3.3-2 .5-.2 0-.4.1-.6.1h-1.2c-.7.2-1.4.4-2 .6-.3.1-.6.3-.9.4-.6.3-1.3.5-1.9.8l-1.5.6c-.4.2-.7.3-1.1.4-.7.3-1.3.6-2 .9-.5.2-1.1.4-1.6.7-.8.5-1.5 1-2.2 1.5-.5.4-1 .7-1.5 1.1-.4.3-.7.7-1.1 1-.7.6-1.5 1.2-2 2v.1c-.3.4-.7.9-1 1.3-.3.3-.5.7-.8 1-.2.3-.5.6-.7.9-.2.3-.5.7-.8 1-.6.6-1.1 1.4-1.5 2.1l-.3.6c-.1.2-.2.4-.1.6v.3c-.2.4-.5.8-.7 1.3-.2.4-.3.7-.4 1.1-.4.8-.8 1.7-1.1 2.5-.2.6-.4 1.3-.6 1.9-.2.7-.5 1.3-.7 2-.2.7-.4 1.4-.5 2.2-.2.6-.3 1.3-.5 1.9-.1.8-.3 1.5-.4 2.3-.1.4 0 .9-.1 1.3 0 .3-.1.6-.2.8-.1.4-.1.8-.1 1.3v3.2c0 .6-.2 1.2.2 1.7v.2c.1.6.2 1.1.3 1.7 0 .2.1.5.2.7.2.9.4 1.8.7 2.6.2.7.5 1.5.7 2.2.2.6.5 1.2.7 1.8.2.5.5 1.1.8 1.6.4.7.8 1.5 1.2 2.2.3.5.7 1 1 1.4l1.2 1.8c.6.9 1.1 1.8 1.9 2.5.5.5.9 1.2 1.4 1.7l.9.9c.3.2.6.5.9.7l1.8 1.5c.5.4 1.1.8 1.7 1.2.5.3 1.1.7 1.6 1 .2.1.3.3.5.4.4.2.8.3 1.2.6.6.3 1.2.7 1.7.9.7.3 1.3.7 2 1-.1.6 0 .7.5.7h.7c.8.2 1.6.4 2.5.6.5.1 1 .3 1.6.5.6.2 1.2.1 1.9.1h1.3c.4 0 .7.1 1.1.1.5 0 1-.2 1.5-.2.9 0 1.8-.1 2.8-.2.4-.1.8-.1 1.2-.1.4 0 .9 0 1.3-.1.7-.1 1.3-.3 2-.4.3 0 .6-.1.9-.1.2 0 .5-.1.7-.2l1.5-.6.9-.3c.1 0 .2-.1.3-.1.2-.1.5-.3.7-.4.3-.2.7-.2 1-.4.5-.3 1.1-.3 1.6-.8 0 0 .1 0 .2-.1l.6-.3c.3-.2.5-.3.8-.5.2-.2.5-.3.8-.4.7-.3 1.1-1 1.8-1.3.1 0 .1-.2.2-.2.1-.1.1-.2.2-.2.1-.1.3-.1.4-.2l.3-.3c.3-.2.7-.3 1-.6.7-.5 1.3-1.1 1.9-1.7l.4-.4c.3-.3.6-.5.9-.8.3-.3.6-.5.9-.8l.7-.7.3-.3 1.3-1.3c.3-.3.3-.8.8-1 0 0 0-.1.1-.1.2-.2.4-.4.5-.6l.6-.6c.4-.6.8-1.2 1.1-1.7l.1-.1 1.5-1.8.3-.3c.1-.1.1-.2.2-.3.1-.1.2-.3.3-.4.2-.2.4-.5.6-.8.2-.2.4-.5.5-.8.2-.4.3-.9.5-1.4.1-.2.1-.3.2-.5.2-.6.3-1.2.5-1.8.2-.4.4-.8.4-1.2l.1-.1c.2-.4.3-.9.5-1.3.1-.2.1-.4.2-.5l.6-1.5c.1-.1 0-.3.1-.5v-.6c.1-.3.2-.7.3-1 .1-.5.3-1.1.4-1.6.1-.7.2-1.5.3-2.2v-.6c0-.2.1-.4.1-.6 0-.2.1-.4.1-.6-.1-.5-.2-1-.2-1.6zm-3.6-15.8c-.1 0-.1 0 0 0-.2-.2-.3-.4-.4-.6.1.1.4.3.4.6zm-3.8-3.4h.2l.6.9s0 .1-.1.3c-.3-.4-.5-.7-.8-1 0-.1 0-.2.1-.2zm-3.9-2.7c-.3-.3-.7-.4-.9-.8.3.1.8.5.9.8zm-2.5-3l-.6-.6c.4.1.6.2.6.6zm-.4-1.2c-.2.1-1.4-.3-1.7-.7.8 0 1.2.5 1.7.7zm-4.1-1.2c.3.1.5.3.8.4v.1c-.3-.1-.5-.3-.8-.4v-.1zm-.1.9c-.8-.2-1.7-.3-2.3-.9.9 0 1.5.6 2.3.9zm-3-3.3c.3.1.5.2.8.4 0 0 0 .1-.1.1-.3-.1-.5-.2-.8-.3 0-.1 0-.2.1-.2zm-.6-1c-.6.1-1 0-1.1-.3.4.1.7.2 1.1.3zm.3 1v.1c-.3-.1-.6 0-.8-.3.3 0 .6.1.8.2zm-2 1.3l1.2.3v.1c-.4-.1-.8-.2-1.3-.2.1-.1.1-.2.1-.2zm-3.1-3.2c-.4.2-.6-.1-.8-.3.2.1.4.2.8.3zm-1.9 1l3 .3v.1c-1-.1-2-.2-2.9-.3-.1 0-.1 0-.1-.1zm-1.1 1.2c-.9.1-5-.2-5.5-.4.6-.4 4.7 0 5.5.4zm-10.2-.7l-1.2.3v-.1c.4-.2.8-.4 1.2-.2zm-2.7.2c-.2.3-1 .6-1.4.4.5-.1 1-.2 1.4-.4zm-10.2 2.8c-.2.5-1.8 1.1-2.2.9.8-.3 1.5-.6 2.2-.9zm-2.6 1.1c-.2 1-1 1.2-1.7 1.5-.1 0-.2 0-.2.1-.1 0-.2.1-.3.1.7-.8 1.7-1.6 2.2-1.7zm-3.2 4.9l.1.1c-.7.6-1.2 1.4-2 1.9.5-.8 1.3-1.4 1.9-2zm-2.4 0c.1 0 .1-.1.2-.2.2-.3.5-.4.7-.5 0 0 0 .1.1.1-.5.4-.9.8-1.5 1.3.1-.4.2-.6.5-.7zm-3.1 3.8c.2-.3.5-.7.8-1 .2-.1.3-.4.5-.6h.1c0 .1 0 .3-.1.3-.5.6-.9 1.1-1.4 1.7 0 0-.1.1-.2.1.1-.1.2-.3.3-.5zm-4.7 31.5c0-.3-.2-.6-.2-.9-.1-.2-.2-.5-.2-.7h.1c.3.8.8 1.6.7 2.5-.2-.3-.4-.6-.4-.9zm8.7 16c-.5-.5-1-1-1.5-1.6.2-.2.2-.2.4 0 .3.3.6.7.8 1 .1.3.2.4.3.6zm1.6.8c.9.7 2 1.2 2.6 2.3-.9-.7-1.9-1.4-2.6-2.3zm4.4 3.6c-.3-.2-.5-.4-.8-.6v-.1c.3.2.5.3.8.5.1.1 0 .2 0 .2zm1.8-.2c-.4-.3-.8-.6-1.1-.9l.1-.1c.2.2.5 0 .6.4 0 .1.2.2.3.3.1.1.2.1.4.2-.2-.1-.3 0-.3.1zm9.2 5.1c-.6-.1-1.1-.3-1.7-.5v-.1c.6.1 1.1.1 1.7.2.1 0 .1.2.1.2.1.1 0 .2-.1.2zm2.5-1.7c-1.2-.1-2.3-.2-3.4-.6v-.1c.3 0 .6.1.9.1.8.1 1.5.2 2.3.2.3.1.3.2.2.4zm.5-1.3c.5-.3 1-.1 1.5-.1-.4.1-1 .3-1.5.1zm6.3 1.9c1.6-.4 1.9-.6 2.9-.8.2 0 .4.1.6.1-1.2.4-1.9.5-3.5.7zm3.5-1.6c.3-.2.6-.3.9-.5-.1.4-.1.4-.9.5zm2.7-.2c.2-.3 3.3-2 3.6-2-.4.3-3.3 2-3.6 2zm3.6-3s0 .1 0 0c-.9.6-1.8 1.1-2.8 1.7-.1-.3.2-.4.3-.5.3-.2.6-.3.9-.4.5-.3 1.1-.6 1.6-.8zm-1.5 0l.3-.3c.4-.2.8-.3 1.3-.5l.1.1c-.6.3-1.1.6-1.7.7.1.1 0 .1 0 0zm-.5 3s0-.1-.1-.1c.7-.3 1.5-.7 2.2-1v.1c-.6.3-1.4.7-2.1 1zm9-5.2c-.3.3-.6.6-.9.8-.8.4-1.5 1.2-2.3 1.4-.9.3-1.8.8-2.8.9.3-.2.5-.3.8-.5.3-.2.7-.3 1-.5.1-.1.3-.1.4-.1.2 0 .3 0 .5-.1.4-.2.8-.5 1.1-.8.3-.2.7-.4 1-.6.4-.2.8-.5 1.2-.8v.3zm-4.4.5c1.2-.9 2.5-1.8 3.7-2.6l.1.1-.2.2c-1.2.7-2.1 1.9-3.6 2.3zm3.3-1.2c-.3.3-.7.5-1 .8 0 0 0-.1-.1-.1.3-.2.6-.5 1.1-.7-.1 0-.1 0 0 0zm6.9-6.9c.3-.2.5-.4.8-.6-.1.4-.4.6-.8.6zm1.2-1.1c.2-.4.4-.6.7-.5-.2.4-.4.6-.7.5zm7.1-15.3l-.3 1.2c-.1.3-.3.5-.4.7-.2.4-.3.8-.4 1.1-.3.6-.5 1.3-.8 1.9 0 .1-.1.1-.2.1-.2.1-.3.2-.2.5 0 .2-.1.5-.2.6-.4.4-.5.9-.7 1.4-.1.5-.2.9-.4 1.3-.3.6-.6 1.2-1.2 1.6-.3.2-.5.6-.8.9-.2.3-.5.6-.8.8-.6.4-1 1-1.5 1.5-.3.4-.8.7-1.1 1.1-.4.4-.8.9-1.2 1.3l-.6.6c-.3.3-.7.5-1 .8-.5.4-1 .8-1.5 1.3l-1.2.9c-.3.2-.7.5-1 .7-.6.4-1.2.9-1.8 1.3-.6.4-1.1.7-1.6 1.2-.2.2-.4.3-.6.4-1.1.5-2.2 1-3.2 1.5l-1.8.9c-.6.3-1.1.5-1.7.7-.8.3-1.7.5-2.5.8-.9.3-1.8.5-2.7.8-.4.1-.7 0-1.1 0-.5.1-.9.2-1.4.2h-5.4c-.6.1-1.2.1-1.8-.1-.6-.2-1.2-.4-1.8-.4-.4 0-.7-.2-1-.3-.1 0-.3-.1-.4-.1-.4-.1-.7-.2-1.1-.3-.2 0-.4-.1-.6-.1-.7.1-1.3-.1-1.9-.4-.6-.4-1.2-.7-1.7-1.1-.6-.5-1.3-.9-1.9-1.2-.2-.1-.3-.1-.5-.2-.3-.2-.7-.4-1-.6l-2.4-1.5c-.4-.2-.5-.4-.3-.9 0-.1-.3-.5-.4-.6l-.9-.6c-.2-.1-.3-.3-.5-.4-.3-.2-.6-.5-.8-.7-.4-.5-.9-.9-1.4-1.4-.3-.3-.5-.7-.8-1.1-.2-.3-.5-.6-.7-1-.4-.5-.7-1-.9-1.6-.2-.6-.6-1.1-.9-1.7-.3-.5-.5-1.1-.7-1.7-.2-.4-.5-.9-.7-1.3-.1-.3-.3-.6-.3-.9 0-1.1-.4-2.1-.8-3.1-.3-.7-.5-1.5-.7-2.2-.2-.7-.2-1.5-.3-2.3 0-.2-.1-.4-.2-.6-.1-.4-.1-.9-.2-1.3 0-.6-.1-1.2-.1-1.8.1-.9.1-1.8.4-2.7.2-.9.4-1.8.5-2.7 0-.3.2-.6.3-1 .3-.7.5-1.5.8-2.2l.6-1.5c.1-.2.2-.5.3-.7l.3-.6.1-.1c-.1-.6.3-1 .4-1.5.1-.7.5-1.3.8-1.9 0-.1.1-.1.2-.2.3-.4.6-.9.8-1.3.2-.4.4-.8.6-1.1.2-.3.4-.7.7-1 .1-.1.1-.2.1-.3 0-.1.1-.3.1-.3.4-.3.6-.7.8-1.1.2-.2.4-.4.5-.6.2-.2.3-.5.5-.7.1-.1.3-.2.4-.4.4-.4.8-.8 1.2-1.3.2-.2.5-.4.8-.7.1-.1.1-.2.2-.3.3-.4.7-.7 1.1-1.1.4-.4.9-.7 1.4-1 .3-.2.6-.4.9-.7.3-.3.6-.5.9-.8l1.2-.9c.3-.3.7-.4 1-.6.4-.2.9-.4 1.3-.6.5-.3 1-.4 1.5-.7.7-.3 1.4-.7 2.1-.9.6-.2 1.1-.3 1.7-.5.5-.1 1-.3 1.4-.4.3-.1.6-.1.9-.2.1 0 .3-.2.4-.2.6-.1 1.2-.2 1.9-.3.5-.1 1.1-.1 1.6-.3.2-.1.4-.1.6-.1h2.9c.6 0 1.3.1 1.9.2.6.1 1.3.2 1.9.2.8 0 1.7-.1 2.5.1.2.1.5 0 .8 0 .2 0 .4.1.6.2.6 0 1.2-.1 1.7.2.3.1.5.3.8.3.6 0 1.1.2 1.6.4.4.1.8 0 1.1.1.4.1.8.3 1.2.4l.1.1c.5-.1.7.4 1.1.5.1 0 .2.1.3.2.3.1.6.2 1 .3.4.1.6.4.9.5.5.2 1.1.5 1.6.8.2.1.5.2.7.4.6.4 1.2.8 1.7 1.1.5.3 1.1.7 1.6 1 .3.2.6.5.8.8l.8.8c.3.3.6.7.9 1v.1c.4.2.4.7.7 1l.9 1.2c.5.8.9 1.6 1.3 2.4.4.7.7 1.5 1.1 2.3.2.4.4.9.6 1.3.2.4.5.6.7 1 .2.3.3.6.4.8 0 0-.1.2-.2.2-.1.1-.2.1-.3.1.2.4.3.8.4 1.1.1.3.3.6.5.8 0 .1.1.1.1.2.2.7.3 1.4.5 2.1v.6c0 .6.2 1.1.2 1.6v1.5c0 .4.1.8.1 1.2 0 .3.1.6 0 .9 0 .7-.1 1.3-.1 2-2.9.1-5.7.6-8.6 1.3-.1-.3-.1-.5.1-.8.2-.2.1-.6.2-.9.1-.4.1-.7.2-1.2.1-.2.2-.4.2-.6 0-.6-.1-1.1-.1-1.6 0-.4 0-.7-.2-1.1-.2-.5-.3-1-.5-1.4-.3-.6-.7-1.2-1.3-1.7-.4-.4-.8-.9-1.3-1.3s-1.1-.7-1.7-1.1l.3-.3c.3-.3.7-.6 1-.9.7-.6 1-1.4 1.3-2.2.3-.7.3-1.4.2-2.1 0-.3-.3-.6-.4-.8l-.1-.1c-.3-.9-1-1.2-1.7-1.6-.3-.2-.7-.4-1-.6-.7-.3-1.3-.6-2.1-.6-.4 0-.8-.1-1.2-.2-.3 0-.6.1-.9 0-.2-.1-.6 0-.9 0-.6 0-1.2.1-1.8.2h-.2c-.3-.1-.6 0-.9.2-.4.2-.8.3-1.3.5-.1.1-.3.1-.4.2-.2.1-.3.2-.4.3-.4.2-.9.4-1.2.6-.2.6-.1 1-.4 1.4-.3.4-.5.9-.4 1.4v.5c-.1.7 0 1.3.4 1.8s.9.8 1.5.8c.2 0 .3 0 .4.1.6.1 1.1-.1 1.6-.5.1-.1.2-.2.3-.2l-.2-.2c.2-.2.2-.4.5-.3h.1c.2-.3.5-.6.6-1 .2-.6-.1-1-.4-1.3-.3-.3-.8-.6-1.1-.9-.1-.1-.2-.3-.2-.5 0-.1.2-.3.3-.3.3-.1.6-.2.8-.3.2-.1.4-.2.6-.2.6 0 1.3 0 1.9.1.2 0 .4.1.5.2.3.1.5.2.8.3.6.1.9.6 1.1 1.2.1.3.2.6.4.9.1.2.1.3-.1.5s-.3.5-.1.8v.4c-.3.7-.8 1.2-1.4 1.7-.1.1-.2.3-.3.4-.7.8-1.4 1.5-2.4 2l-.9.6c-.1.1-.2.1-.3.1-.2-.1-.4.1-.5.2-.3.1-.5.4-.4.7 0 .3.5.4.8.3.5-.3 1.1-.3 1.7-.3.3 0 .7 0 1 .1.6.1 1.2.2 1.7.4.4.1.8.2 1.2.4.3.1.6.3.8.5l.9.9c.1.1 0 .2 0 .3.4.1.6.5.8.8.4 1 .5 2 .2 3.2-.3 1-.8 2-1.7 2.7-.6.5-1.4 1-2.2 1.1-1 .2-2 .4-3 .5-.6.1-1.3 0-1.9-.1-.4-.1-.7-.3-1-.5-.4-.2-.8-.4-1.2-.7-.3-.2-.5-.5-.6-.9-.1-.4-.5-.5-.7-.7 0 0-.1-.1-.2-.1.2-.2.3-.3.5-.4.1.7.6.6 1 .7h.1c.4.3.9.2 1.3.1.5 0 .8-.3 1.2-.7 0-.1.1-.1.2-.2.3-.1.4-.3.4-.6v-.2c.2-.4 0-.8-.1-1.2 0-.5-.2-.9-.5-1.3v-.1c-.4-.4-.7-.8-1.2-1.1-.5-.3-1.1-.5-1.6-.5-.4 0-.9.1-1.3.3-.4.1-.8.4-1.2.6-.2.1-.3.2-.5.3-.2.1-.4.2-.6.4-.3.2-.6.4-.7.7-.1.5-.5.9-.7 1.4-.1.5-.1.9-.1 1.4 0 .4.1.8.2 1.2 0 .4.2.8.5 1 .1.1.2.3.2.4 0 .3.1.5.2.7.3.3.5.6.8 1 .2.2.4.5.7.7.3.2.5.4.9.6.2.1.3.2.4.4.2.1.3.2.5.3.4.1.9.2 1.3.3.6.1 1.3.2 2 .1h.2c-.1.4-.4.6-.7.8-.3.3-.7.5-1.1.8-.4.3-.8.5-1.2.8-.6.4-1.2.8-1.7 1.2-.4.3-.7.5-1.1.7-.5.2-.9.5-1.4.8-.2.1-.3.2-.5.2-.1 0-.1 0-.2.1-.4.3-.9.6-1.3.9-.8.5-1.7 1-2.5 1.5-.8.4-1.5.9-2.3 1.3-.6.3-1.2.6-1.7.9l-.9.3-2.1.6c-.5.1-.9.3-1.3.5-.9.3-1.7.7-2.6.7h-.7c-.2 0-.4.1-.6.1h-.8c-.8.1-1.6-.1-2.4-.2-.5-.1-1-.1-1.4-.2h-.2c-.4-.3-.9-.3-1.4-.5-.2-.1-.4-.3-.7-.4-.6-.1-1-.5-1.4-.9-.3-.3-.7-.6-.9-1-.3-.4-.6-.9-.9-1.3-.3-.4-.5-.9-.8-1.3-.2-.4-.4-.7-.6-1.1-.3-.9-.7-1.9-1-2.8-.1-.4-.3-.9-.4-1.3l-.3-1.8c-.1-.4-.1-.7-.2-1.1 0-.2 0-.5.1-.7v-1.7c0-.5.1-.9.2-1.4 0-.3.1-.5.1-.8 0-.3.1-.6.2-.9.1-.5.1-1 .2-1.6 0-.1 0-.2.1-.3.2-.6.4-1.3.6-1.9.1-.5.3-.9.4-1.4.2-.7.4-1.3.7-2 .3-.6.7-1.3 1.1-1.9.3-.5.7-1 1.1-1.6.1-.1.1-.2.2-.2l.4-.4c.3-.5.7-.8 1.1-1.2.2-.3.5-.5.7-.8.1-.1.2-.1.3-.1.2.1.3 0 .4-.2.2-.3.5-.5.7-.7l.3-.3.3-.3c1.4-.9 2.8-1.2 4.3-1.1.4 0 .8-.1 1.2-.2.5-.1.9 0 1.4.1.4.1.8.1 1.1.3.6.3 1.1.7 1.6.9.8.3 1.4.8 2.1 1.3.3.2.4.5.6.7.3.5.5 1 .8 1.6.3.6 0 1-.6 1.2-.7.2-1.3.6-1.9 1.2-.6.5-.8 1.3-.7 1.9 0 .7.3 1.3.5 1.9.1.4.4.6.8.8.1 0 .1.1.2.1.8.8 1.9.7 2.9.8.1 0 .3-.1.4-.1.4-.2.8-.3 1.2-.5.3-.2.5-.5.8-.7.1-.1.3-.2.4-.3.1-.1.2-.1.2-.2.1-.2.2-.5.2-.7.1-.4.2-.9.3-1.4.1-.7.1-1.4.2-2.1 0-.4-.1-.7-.2-1.1-.1-.5-.3-.9-.4-1.4-.2-.8-.4-1.6-.9-2.2-.4-.5-.9-.9-1.4-1.3-.3-.2-.6-.5-1-.7-.1-.1-.2-.1-.3-.2-.5-.3-1-.6-1.6-.9-.5-.3-.9-.7-1.3-.9-.3-.2-.6-.2-1-.3h-.7c0 .1.1.1.1.2-.3 0-.5-.1-.9-.1l.4-.2c-.1-.1-.2-.2-.3-.2-.1 0-.2.1-.4.2-.3-.1-.7-.2-1-.2-.7 0-1.4-.1-2.1 0-.5.1-1.1 0-1.6.2-.3.2-.8.1-1.2.2-.5.1-1 .2-1.5.4-.6.2-1.1.4-1.6.6-.7.3-1.5.6-2.2.9-.1 0-.2.1-.3.2-.4.3-.9.7-1.3 1-.5.4-1.1.7-1.6 1.2-.8.8-1.6 1.6-2.4 2.5-.4.5-.9 1-1.3 1.5-.2.2-.2.5-.3.7-.4.7-1 1.5-1.4 2.2-.5.9-.8 1.8-1.2 2.7-.4.8-.7 1.7-1.1 2.5 0 .1 0 .1-.1.2 0 .7-.2 1.3-.5 1.9-.1.3-.1.6-.1.8 0 .8 0 1.7-.1 2.5 0 .3.1.7 0 1-.1.7.1 1.3.2 2 0 .4.1.9.1 1.3s.2.7.2 1.1c.1.7.4 1.4.7 2.1.3.8.5 1.6.8 2.4.2.6.5 1.1.9 1.6.3.4.6.9 1 1.3.4.5.9.9 1.3 1.3.3.3.6.6 1 .8l1.8 1.5c.2.2.5.3.8.4.3.2.7.4 1 .5.3.2.7.4 1 .6.1.1.3 0 .4.1.3.1.7.3 1 .4.1 0 .2.1.3.1.2 0 .4 0 .5.2 0 .1.1.1.2.1.9.1 1.6.6 2.5.7.6.1 1.1.4 1.6.5.5.1.9.3 1.5.1.1-.1.3-.1.4 0 .5.2.9 0 1.4 0 .4 0 .7-.1 1-.2.5-.2.9-.1 1.4-.1.3 0 .7-.2 1.1-.2.1 0 .2-.1.3-.1.5 0 1-.2 1.5-.4.4-.2.9-.3 1.3-.5 1-.4 1.9-.7 2.9-1.1.1 0 .2-.1.2-.1.1-.2.3-.2.5-.3h.2c.7-.3 1.4-.5 2.1-.9.4-.2 1-.3 1.4-.6.2-.1.3-.3.5-.4l1.5-.9c.4-.2.9-.4 1.3-.7.2-.1.4-.4.6-.5.4-.2.8-.3 1.2-.5.3-.2.6-.4.8-.7.2-.1.3-.2.5-.3l.6-.3c.4-.2.7-.4 1.1-.6.4-.3.9-.7 1.3-1 .3-.2.6-.3.9-.5 0 0 .1 0 .1-.1.3-.3.6-.6 1-.8.4-.2.8-.6 1.2-.8.4-.2.8-.4 1.2-.7.5-.4 1.1-.7 1.7-1 .3-.1.6-.2.8-.3 1.1-.5 2.2-1 3.4-1.4.6-.2 1.1-.5 1.6-.7.2-.1.4-.1.6-.1.4-.1.7-.3 1.1-.4.6-.2 1.2-.3 1.7-.5.4-.1.8-.4 1.2-.5.4-.1.9-.2 1.3-.3.6-.2 1.1-.4 1.7-.6.3-.1.7-.1 1.2-.2 0 .3-.1.6-.1 1zm-3.9-3.4c-.4.1-.7.1-1 .2.3-.4.5-.4 1-.2zm-5-5.1l-.3-.6.1-.1c.3.1.2.4.2.7zm.4 7.5c-.1.3-.3.3-.7.1.3 0 .4 0 .7-.1zm-2.7-7.7c-.2-.2-.3-.5-.5-.7.1-.1.3.2.5.7zm-.5-2.4l.1-.1c.2.2.4.4.6.7l-.1.1c-.2-.3-.4-.5-.6-.7zm1.2 8.3c-.1.3-.5.5-1 .5.3-.1.6-.3 1-.5zm.5-.8c-.2.1-.4.2-.6.4 0 0-.1 0-.1-.1.1-.1.1-.3.2-.5.2.1.4.1.5.2zm-.3-3.3c.1 0 .1 0 0 0 .3.1.5.2.3.6l-.3-.6zm.6 6.3c-.5.2-1 .4-1.7.6.3-.4.8-.6 1.7-.6zM143 91.2s.1.1.1.2c0 0-.1.1-.2.1-.2-.1-.4-.3-.7-.4 0 0 0-.1.1-.1.2.1.4.1.7.2zm-.4-8.2c.1 0 .2-.1.2-.1.2 0 .4.1.5.2v.2h-.6c0-.1 0-.3-.1-.3zm.4 2.9s0-.1-.1-.2c.1 0 .1-.1.2-.1.2 0 .3.1.5.2v.2c-.3 0-.4 0-.6-.1zm.5 1.3c.3-.3.5.2.8.1v.1c-.3 0-.6-.1-.8-.1v-.1zm.5-2.9c.3-.2 1 0 1.3.3-.5-.1-.8-.2-1.3-.3zm-2.2 7.4c-.3.1-1.4-.2-1.4-.5.4.2.9.3 1.4.5zm3.1 8.6c.1-.3.1-.5.2-.8.1.4 0 .8-.2.8zm-3.8 8.5c-.6.4-1.3.8-1.9 1.2v-.1c.5-.5 1.2-.8 1.9-1.1 0-.1 0-.1 0 0zm-3.5.1l-.9.6v-.1c.1-.3.5-.5.9-.5zm-2.3-5.5c-.5.2-.5.2-.8-.3.3.1.5.2.8.3zm1.2 4.7c-.2.1-.4.2-.7.3v-.1c.2-.1.4-.2.7-.3v.1zm-2.3.6c.5-.4 1-.8 1.5-1.1l.1.1c-.4.5-1 .7-1.6 1zm1 .1c-.3.1-.5.3-.8.4 0 0 0-.1-.1-.1.2-.1.5-.3.7-.4l.2.1zm-2 1s.1 0 0 0c.4-.2.7-.4 1.1-.6 0 0 0 .1.1.1-.3.2-.6.5-1 .5 0 .1 0 .2-.1.3h-.1c-.1 0-.2 0-.2.1-.1.4-.5.3-.7.3.1-.2.3-.3.5-.4.1-.1.3-.2.4-.3.1 0 0 0 0 0zm-3.4 3.8c-.1.2-.3.3-.5.5 0 0 0-.1-.1-.1.2-.2.4-.3.6-.4zm-1.1-1.1c.2-.4.4-.5.9-.4-.4.1-.6.3-.9.4zm.9-.6c.8-.5 1.6-.8 2.3-1.3l.1.1c-.2.1-.3.3-.5.4-.2.2-.5.2-.7.6 0 .1-.3.2-.4.2h-.8zm-5.4 5.2c-.3.1-.6.2-.8.3v-.1c.3-.1.5-.2.8-.3v.1zm-2.9 2.7c-.3.2-.6.3-.9.5 0-.4.4-.6.9-.5zm-21.4-9.4h-.1c-.1-.2-.3-.3-.3-.5v-.4c.1.1.2.1.2.2.1.3.2.5.2.7zm3.7-25c0-.2.5-.6.8-.6v.1c-.2.2-.5.3-.8.5zm.9-1.5l.3-.3c.3-.2.7-.4 1-.5.4-.2.8-.4 1.1-.6h.3v.1c-.8.6-1.8.8-2.7 1.3zm4-1.9c0-.2 0-.3.1-.3h.4v.1c-.2.1-.3.1-.5.2zm12 2.5c.4.1.8.3 1.1.4-.8.3-.8.3-1.1-.4zm3.5 2.7c-.5-.1-.9-.1-1.3-.2-.2 0-.4 0-.4-.3.6.1 1.2.1 1.7.5zm-1.1-1.7c.5-.2.7 0 .7.3-.2-.1-.4-.2-.7-.3zm-1.2.4c.2-.2.5-.2.8.1-.3.1-.5-.2-.8-.1zm3.5 4.9c0-.1.1-.2.2-.3h.1c0 .4-.1.7-.1 1-.1-.2-.2-.4-.2-.7zm-26.1 7.4c-.1 1-.3 2-.4 2.9-.2-.5-.1-1 0-1.5.1-.4.2-.9.4-1.4zm-.9 8.4h-.1c-.1-.4-.1-.8-.2-1.2h.2c0 .4.1.8.1 1.2zm-1.8.8c-.1-.3-.2-.6-.3-1 .4.1.5.6.3 1zm-1.4-7c-.1.3-.1.6-.2.9h-.1c.1-.3.1-.6.2-.9h.1zm62.9-11.2h.1c.2.5.3 1.1.5 1.6 0 0-.1 0-.1.1-.2-.6-.3-1.2-.5-1.7zm.6 10.2c-.2-1.5-.2-1.4.1-2.8 0 .9.3 1.8-.1 2.8zm1.5-.6h-.2v-1.7h.2c0 .6.3 1.2 0 1.7z" id="path9" fill="#fff"/></g></svg>